<svg xmlns="http://www.w3.org/2000/svg" xmlns:xlink="http://www.w3.org/1999/xlink" viewBox="0 0 800 400" xmlns:v="https://vecta.io/nano"><path d="M.5 0h800v400H.5z" fill="#f1f0f0"/><path d="M683 127.02H118V87.98c0-1.65 1.34-2.99 2.99-2.99h559.02c1.65 0 2.99 1.34 2.99 2.99v39.04z" fill="#767676"/><path d="M680.01 211.77H120.99c-1.65 0-2.99-1.34-2.99-2.99v-81.77h565v81.77c0 1.66-1.34 2.99-2.99 2.99z" fill="#9e9e9e"/><path d="M153.52 104.18h-6.87v-6.87c0-.76-.62-1.37-1.37-1.37h-.92c-.76 0-1.37.62-1.37 1.37v6.87h-6.87c-.76 0-1.37.62-1.37 1.37v.92c0 .76.62 1.37 1.37 1.37h6.87v6.87c0 .76.62 1.37 1.37 1.37h.92c.76 0 1.37-.62 1.37-1.37v-6.87h6.87c.76 0 1.37-.62 1.37-1.37v-.92a1.36 1.36 0 0 0-1.37-1.37z" fill="#e0e0e0"/><path d="M680.01 263.03H120.99c-1.65 0-2.99-1.34-2.99-2.99V224c0-1.65 1.34-2.99 2.99-2.99h559.02c1.65 0 2.99 1.34 2.99 2.99v36.05c0 1.65-1.34 2.98-2.99 2.98z" fill="#767676"/><use xlink:href="#B" fill="#e0e0e0"/><path d="M680.01 315.01H120.99c-1.65 0-2.99-1.34-2.99-2.99v-36.05c0-1.65 1.34-2.99 2.99-2.99h559.02c1.65 0 2.99 1.34 2.99 2.99v36.05c0 1.65-1.34 2.99-2.99 2.99z" fill="#767676"/><use xlink:href="#B" y="51.97" fill="#e0e0e0"/><defs ><path id="B" d="M153.52 240.19h-6.87v-6.87c0-.76-.62-1.37-1.37-1.37h-.92c-.76 0-1.37.62-1.37 1.37v6.87h-6.87c-.76 0-1.37.62-1.37 1.37v.92c0 .76.62 1.37 1.37 1.37h6.87v6.87c0 .76.62 1.37 1.37 1.37h.92c.76 0 1.37-.62 1.37-1.37v-6.87h6.87c.76 0 1.37-.62 1.37-1.37v-.92c.01-.75-.61-1.37-1.37-1.37z"/></defs></svg>