<svg xmlns="http://www.w3.org/2000/svg" width="24" height="24" fill="#fff"><path d="M16.681 8.605l-.44 10.563a.17.17 0 0 1-.162.152H8.161c-.08 0-.159-.075-.162-.152l-.44-10.563a.84.84 0 1 0-1.679.07l.44 10.562A1.85 1.85 0 0 0 8.161 21h7.917a1.85 1.85 0 0 0 1.841-1.762l.44-10.562a.84.84 0 1 0-1.679-.07h0zm-5.161.755v8.16a.6.6 0 1 0 1.2 0V9.36a.6.6 0 1 0-1.2 0zm-2.76.018l.24 8.16a.6.6 0 1 0 1.2-.035l-.24-8.16a.6.6 0 1 0-1.2.035zm5.52-.036l-.24 8.16a.6.6 0 1 0 1.199.035l.24-8.16a.6.6 0 1 0-1.199-.035zM6 6.96h12a.84.84 0 1 0 0-1.68H6a.84.84 0 0 0 0 1.68z"/><path d="M10.415 5.724l.247-.988c.035-.141.233-.296.377-.296h1.922c.144 0 .342.154.377.296l.247.988 1.63-.407-.247-.988c-.222-.889-1.091-1.568-2.007-1.568h-1.922c-.915 0-1.785.68-2.007 1.568l-.247.988 1.63.407z"/></svg>